<?xml version='1.0' encoding='utf-8'?>
<svg width="220.91mm" height="156.23mm" viewBox="-262.988095 -182.988095 525.97619 371.97619" version="1.1" xmlns="http://www.w3.org/2000/svg">
  <g transform="scale(1,-1)" stroke-linecap="round">
    <g fill="none" stroke="rgb(153,153,153)" stroke-width="0.42857142857142855" id="hidden" stroke-dasharray="5.442857 2.721429">
      <line x1="214.0" y1="-154.0" x2="234.0" y2="-154.0" />
      <line x1="-214.0" y1="-154.0" x2="214.0" y2="-154.0" />
      <line x1="-234.0" y1="-154.0" x2="-214.0" y2="-154.0" />
      <line x1="-214.0" y1="-154.0" x2="214.0" y2="-154.0" />
      <line x1="-214.0" y1="-154.0" x2="214.0" y2="-154.0" />
      <line x1="-214.0" y1="-154.0" x2="214.0" y2="-154.0" />
      <line x1="-214.0" y1="-154.0" x2="214.0" y2="-154.0" />
      <line x1="234.0" y1="-154.0" x2="234.0" y2="-134.0" />
      <line x1="234.0" y1="-134.0" x2="234.0" y2="134.0" />
      <line x1="234.0" y1="134.0" x2="234.0" y2="154.0" />
      <line x1="234.0" y1="-134.0" x2="234.0" y2="134.0" />
      <line x1="234.0" y1="-134.0" x2="234.0" y2="134.0" />
      <line x1="234.0" y1="-134.0" x2="234.0" y2="134.0" />
      <line x1="234.0" y1="-134.0" x2="234.0" y2="134.0" />
      <line x1="-234.0" y1="-154.0" x2="-234.0" y2="-134.0" />
      <line x1="-234.0" y1="-134.0" x2="-234.0" y2="134.0" />
      <line x1="-234.0" y1="134.0" x2="-234.0" y2="154.0" />
      <line x1="-234.0" y1="-134.0" x2="-234.0" y2="134.0" />
      <line x1="-234.0" y1="-134.0" x2="-234.0" y2="134.0" />
      <line x1="-234.0" y1="-134.0" x2="-234.0" y2="134.0" />
      <line x1="-234.0" y1="-134.0" x2="-234.0" y2="134.0" />
      <line x1="-234.0" y1="-134.0" x2="-214.0" y2="-134.0" />
      <line x1="-214.0" y1="-154.0" x2="-214.0" y2="-134.0" />
      <line x1="-214.0" y1="-134.0" x2="-214.0" y2="-154.0" />
      <line x1="-214.0" y1="-134.0" x2="214.0" y2="-134.0" />
      <line x1="214.0" y1="-134.0" x2="214.0" y2="-154.0" />
      <line x1="-214.0" y1="-134.0" x2="214.0" y2="-134.0" />
      <line x1="214.0" y1="-134.0" x2="214.0" y2="-154.0" />
      <line x1="-214.0" y1="-134.0" x2="-214.0" y2="-154.0" />
      <line x1="-214.0" y1="-134.0" x2="-214.0" y2="-154.0" />
      <line x1="-214.0" y1="-134.0" x2="214.0" y2="-134.0" />
      <line x1="214.0" y1="-134.0" x2="214.0" y2="-154.0" />
      <line x1="214.0" y1="-134.0" x2="214.0" y2="-154.0" />
      <line x1="214.0" y1="-134.0" x2="214.0" y2="-154.0" />
      <line x1="-214.0" y1="-134.0" x2="214.0" y2="-134.0" />
      <line x1="-214.0" y1="-134.0" x2="-214.0" y2="-154.0" />
      <line x1="-214.0" y1="-134.0" x2="214.0" y2="-134.0" />
      <line x1="-214.0" y1="-134.0" x2="-214.0" y2="-154.0" />
      <line x1="214.0" y1="-154.0" x2="214.0" y2="-134.0" />
      <line x1="214.0" y1="-134.0" x2="234.0" y2="-134.0" />
      <line x1="214.0" y1="154.0" x2="234.0" y2="154.0" />
      <line x1="-214.0" y1="154.0" x2="214.0" y2="154.0" />
      <line x1="-234.0" y1="154.0" x2="-214.0" y2="154.0" />
      <line x1="-214.0" y1="154.0" x2="214.0" y2="154.0" />
      <line x1="-214.0" y1="154.0" x2="214.0" y2="154.0" />
      <line x1="-214.0" y1="154.0" x2="214.0" y2="154.0" />
      <line x1="-214.0" y1="154.0" x2="214.0" y2="154.0" />
      <line x1="-214.0" y1="134.0" x2="214.0" y2="134.0" />
      <line x1="214.0" y1="-134.0" x2="214.0" y2="134.0" />
      <line x1="-214.0" y1="-134.0" x2="-214.0" y2="134.0" />
      <line x1="-234.0" y1="-134.0" x2="-214.0" y2="-134.0" />
      <line x1="-234.0" y1="134.0" x2="-214.0" y2="134.0" />
      <line x1="-214.0" y1="-134.0" x2="-214.0" y2="134.0" />
      <line x1="-234.0" y1="134.0" x2="-214.0" y2="134.0" />
      <line x1="-214.0" y1="134.0" x2="-214.0" y2="154.0" />
      <line x1="-234.0" y1="134.0" x2="-214.0" y2="134.0" />
      <line x1="-214.0" y1="-134.0" x2="-214.0" y2="134.0" />
      <line x1="-234.0" y1="-134.0" x2="-214.0" y2="-134.0" />
      <line x1="-234.0" y1="-134.0" x2="-214.0" y2="-134.0" />
      <line x1="-234.0" y1="134.0" x2="-214.0" y2="134.0" />
      <line x1="-214.0" y1="-134.0" x2="-214.0" y2="134.0" />
      <line x1="-234.0" y1="134.0" x2="-214.0" y2="134.0" />
      <line x1="-234.0" y1="-134.0" x2="-214.0" y2="-134.0" />
      <line x1="-234.0" y1="134.0" x2="-214.0" y2="134.0" />
      <line x1="-214.0" y1="-134.0" x2="-214.0" y2="134.0" />
      <line x1="-234.0" y1="-134.0" x2="-214.0" y2="-134.0" />
      <line x1="214.0" y1="134.0" x2="234.0" y2="134.0" />
      <line x1="214.0" y1="134.0" x2="234.0" y2="134.0" />
      <line x1="214.0" y1="-134.0" x2="214.0" y2="134.0" />
      <line x1="214.0" y1="-134.0" x2="234.0" y2="-134.0" />
      <line x1="214.0" y1="-134.0" x2="234.0" y2="-134.0" />
      <line x1="214.0" y1="134.0" x2="234.0" y2="134.0" />
      <line x1="214.0" y1="134.0" x2="234.0" y2="134.0" />
      <line x1="214.0" y1="-134.0" x2="214.0" y2="134.0" />
      <line x1="214.0" y1="-134.0" x2="234.0" y2="-134.0" />
      <line x1="214.0" y1="-134.0" x2="234.0" y2="-134.0" />
      <line x1="214.0" y1="-134.0" x2="234.0" y2="-134.0" />
      <line x1="214.0" y1="-134.0" x2="214.0" y2="134.0" />
      <line x1="214.0" y1="-134.0" x2="214.0" y2="134.0" />
      <line x1="214.0" y1="134.0" x2="234.0" y2="134.0" />
      <line x1="-214.0" y1="154.0" x2="-214.0" y2="134.0" />
      <line x1="214.0" y1="154.0" x2="214.0" y2="134.0" />
      <line x1="-214.0" y1="134.0" x2="214.0" y2="134.0" />
      <line x1="214.0" y1="154.0" x2="214.0" y2="134.0" />
      <line x1="-214.0" y1="134.0" x2="214.0" y2="134.0" />
      <line x1="-214.0" y1="154.0" x2="-214.0" y2="134.0" />
      <line x1="-214.0" y1="154.0" x2="-214.0" y2="134.0" />
      <line x1="214.0" y1="154.0" x2="214.0" y2="134.0" />
      <line x1="-214.0" y1="134.0" x2="214.0" y2="134.0" />
      <line x1="214.0" y1="154.0" x2="214.0" y2="134.0" />
      <line x1="-214.0" y1="154.0" x2="-214.0" y2="134.0" />
      <line x1="-214.0" y1="154.0" x2="-214.0" y2="134.0" />
      <line x1="214.0" y1="154.0" x2="214.0" y2="134.0" />
      <line x1="-214.0" y1="134.0" x2="214.0" y2="134.0" />
      <line x1="214.0" y1="134.0" x2="234.0" y2="134.0" />
      <line x1="214.0" y1="134.0" x2="214.0" y2="154.0" />
      <circle cx="-190.0" cy="-120.0" r="4.0" />
      <circle cx="-190.0" cy="-120.0" r="4.0" />
      <line x1="-205.0" y1="-135.0" x2="-205.0" y2="-134.0" />
      <line x1="-200.0" y1="-105.0" x2="-175.0" y2="-105.0" />
      <line x1="-205.0" y1="-135.0" x2="-175.0" y2="-135.0" />
      <line x1="-175.0" y1="-135.0" x2="-175.0" y2="-134.0" />
      <line x1="-175.0" y1="-131.0" x2="-175.0" y2="-105.0" />
      <circle cx="-190.0" cy="-120.0" r="2.0" />
      <line x1="-205.0" y1="-135.0" x2="-205.0" y2="-105.0" />
      <line x1="-175.0" y1="-105.0" x2="-205.0" y2="-105.0" />
      <line x1="-175.0" y1="-135.0" x2="-205.0" y2="-135.0" />
      <line x1="-175.0" y1="-135.0" x2="-175.0" y2="-105.0" />
      <circle cx="-190.0" cy="-120.0" r="2.0" />
      <line x1="-217.0" y1="-147.0" x2="-217.0" y2="147.0" />
      <line x1="-217.0" y1="147.0" x2="217.0" y2="147.0" />
      <line x1="-217.0" y1="-147.0" x2="217.0" y2="-147.0" />
      <line x1="217.0" y1="-147.0" x2="217.0" y2="147.0" />
      <line x1="-116.0" y1="-90.0" x2="-116.0" y2="130.0" />
      <line x1="-116.0" y1="130.0" x2="-108.0" y2="130.0" />
      <line x1="-116.0" y1="-90.0" x2="-108.0" y2="-90.0" />
      <line x1="-108.0" y1="-90.0" x2="-108.0" y2="130.0" />
      <line x1="108.0" y1="-90.0" x2="108.0" y2="130.0" />
      <line x1="108.0" y1="130.0" x2="116.0" y2="130.0" />
      <line x1="108.0" y1="-90.0" x2="116.0" y2="-90.0" />
      <line x1="116.0" y1="-90.0" x2="116.0" y2="130.0" />
      <line x1="-220.0" y1="-150.0" x2="-220.0" y2="150.0" />
      <line x1="-220.0" y1="150.0" x2="220.0" y2="150.0" />
      <line x1="-220.0" y1="-150.0" x2="220.0" y2="-150.0" />
      <line x1="220.0" y1="-150.0" x2="220.0" y2="150.0" />
      <line x1="-217.0" y1="-147.0" x2="-217.0" y2="147.0" />
      <line x1="217.0" y1="147.0" x2="-217.0" y2="147.0" />
      <line x1="217.0" y1="-147.0" x2="60.0" y2="-147.0" />
      <line x1="-60.0" y1="-147.0" x2="60.0" y2="-147.0" />
      <line x1="-60.0" y1="-147.0" x2="-217.0" y2="-147.0" />
      <line x1="217.0" y1="-147.0" x2="217.0" y2="147.0" />
      <line x1="-116.0" y1="-90.0" x2="-116.0" y2="130.0" />
      <line x1="-116.0" y1="130.0" x2="-108.0" y2="130.0" />
      <line x1="-116.0" y1="-90.0" x2="-108.0" y2="-90.0" />
      <line x1="-108.0" y1="-90.0" x2="-108.0" y2="130.0" />
      <line x1="108.0" y1="-90.0" x2="108.0" y2="130.0" />
      <line x1="108.0" y1="130.0" x2="116.0" y2="130.0" />
      <line x1="108.0" y1="-90.0" x2="116.0" y2="-90.0" />
      <line x1="116.0" y1="-90.0" x2="116.0" y2="130.0" />
      <line x1="-220.0" y1="-150.0" x2="-220.0" y2="150.0" />
      <line x1="-220.0" y1="150.0" x2="220.0" y2="150.0" />
      <line x1="60.0" y1="-150.0" x2="220.0" y2="-150.0" />
      <line x1="-60.0" y1="-150.0" x2="60.0" y2="-150.0" />
      <line x1="-220.0" y1="-150.0" x2="-60.0" y2="-150.0" />
      <line x1="220.0" y1="-150.0" x2="220.0" y2="150.0" />
      <line x1="60.0" y1="-150.0" x2="60.0" y2="-147.0" />
      <line x1="-60.0" y1="-150.0" x2="-60.0" y2="-147.0" />
      <line x1="60.0" y1="-150.0" x2="60.0" y2="-147.0" />
      <line x1="-60.0" y1="-150.0" x2="-60.0" y2="-147.0" />
      <line x1="-120.0" y1="-136.0" x2="-120.0" y2="-134.0" />
      <line x1="-120.0" y1="-131.0" x2="-120.0" y2="14.0" />
      <line x1="-120.0" y1="-136.0" x2="-120.0" y2="14.0" />
      <line x1="-120.0" y1="-136.0" x2="120.0" y2="-136.0" />
      <line x1="120.0" y1="-136.0" x2="-120.0" y2="-136.0" />
      <line x1="-60.0" y1="-136.0" x2="60.0" y2="-136.0" />
      <line x1="-60.0" y1="-136.0" x2="60.0" y2="-136.0" />
      <line x1="-120.0" y1="14.0" x2="120.0" y2="14.0" />
      <line x1="120.0" y1="-136.0" x2="120.0" y2="-134.0" />
      <line x1="120.0" y1="-131.0" x2="120.0" y2="14.0" />
      <line x1="-117.0" y1="-131.0" x2="-117.0" y2="11.0" />
      <line x1="117.0" y1="11.0" x2="-117.0" y2="11.0" />
      <line x1="117.0" y1="-131.0" x2="117.0" y2="11.0" />
      <line x1="-120.0" y1="14.0" x2="120.0" y2="14.0" />
      <line x1="120.0" y1="-136.0" x2="120.0" y2="14.0" />
      <line x1="-60.0" y1="-158.0" x2="-60.0" y2="-136.0" />
      <line x1="60.0" y1="-158.0" x2="60.0" y2="-136.0" />
      <line x1="-60.0" y1="-158.0" x2="60.0" y2="-158.0" />
      <line x1="60.0" y1="-158.0" x2="60.0" y2="-136.0" />
      <line x1="-60.0" y1="-158.0" x2="-60.0" y2="-136.0" />
      <line x1="-60.0" y1="-158.0" x2="60.0" y2="-158.0" />
      <line x1="-117.0" y1="-133.0" x2="117.0" y2="-133.0" />
      <line x1="117.0" y1="-133.0" x2="117.0" y2="11.0" />
      <line x1="-117.0" y1="11.0" x2="117.0" y2="11.0" />
      <line x1="-117.0" y1="-133.0" x2="-117.0" y2="11.0" />
      <line x1="58.75" y1="-57.5" x2="58.75" y2="-30.506511" />
      <line x1="58.75" y1="-57.5" x2="58.75" y2="-30.506511" />
      <path d="M 56.0,-77.0 A 26.5,26.5 64.87918988559541 0,0 58.75,-30.506511" />
      <line x1="56.0" y1="-77.0" x2="52.0" y2="-77.0" />
      <line x1="52.0" y1="-79.122145" x2="52.0" y2="-77.0" />
      <path d="M 58.75,-26.150617 A 30.5,30.5 111.64486285821415 0,1 52.0,-79.122145" />
      <line x1="58.75" y1="-26.150617" x2="58.75" y2="-23.0" />
      <line x1="58.75" y1="-23.0" x2="81.25" y2="-23.0" />
      <line x1="81.25" y1="-26.150617" x2="81.25" y2="-23.0" />
      <path d="M 88.0,-79.122145 A 30.5,30.5 111.64486285821415 0,1 81.25,-26.150617" />
      <line x1="88.0" y1="-79.122145" x2="88.0" y2="-77.0" />
      <line x1="88.0" y1="-77.0" x2="84.0" y2="-77.0" />
      <path d="M 81.25,-30.506511 A 26.5,26.5 64.87918988559541 0,0 84.0,-77.0" />
      <line x1="81.25" y1="-57.5" x2="81.25" y2="-30.506511" />
      <line x1="58.75" y1="-57.5" x2="81.25" y2="-57.5" />
      <path d="M 56.0,-77.0 A 26.5,26.5 64.87918988559541 0,0 58.75,-30.506511" />
      <line x1="56.0" y1="-77.0" x2="52.0" y2="-77.0" />
      <line x1="52.0" y1="-79.122145" x2="52.0" y2="-77.0" />
      <path d="M 52.0,-79.122145 A 30.5,30.5 68.35513714178562 0,0 58.75,-26.150617" />
      <line x1="58.75" y1="-26.150617" x2="58.75" y2="-23.0" />
      <line x1="58.75" y1="-23.0" x2="81.25" y2="-23.0" />
      <line x1="81.25" y1="-26.150617" x2="81.25" y2="-23.0" />
      <path d="M 81.25,-26.150617 A 30.5,30.5 68.35513714178562 0,0 88.0,-79.122145" />
      <line x1="88.0" y1="-79.122145" x2="88.0" y2="-77.0" />
      <line x1="88.0" y1="-77.0" x2="84.0" y2="-77.0" />
      <path d="M 81.25,-30.506511 A 26.5,26.5 64.87918988559541 0,0 84.0,-77.0" />
      <line x1="81.25" y1="-57.5" x2="81.25" y2="-30.506511" />
      <line x1="58.75" y1="-57.5" x2="81.25" y2="-57.5" />
      <line x1="37.5" y1="-23.0" x2="102.5" y2="-23.0" />
      <line x1="37.5" y1="-23.0" x2="102.5" y2="-23.0" />
      <line x1="37.5" y1="-23.0" x2="37.5" y2="-17.0" />
      <line x1="37.5" y1="-17.0" x2="102.5" y2="-17.0" />
      <line x1="102.5" y1="-23.0" x2="102.5" y2="-17.0" />
      <line x1="102.5" y1="-23.0" x2="102.5" y2="-17.0" />
      <line x1="37.5" y1="-23.0" x2="37.5" y2="-17.0" />
      <line x1="37.5" y1="-17.0" x2="102.5" y2="-17.0" />
      <circle cx="154.0" cy="109.0" r="8.0" />
      <circle cx="154.0" cy="109.0" r="8.0" />
      <line x1="-200.0" y1="-131.0" x2="-200.0" y2="131.0" />
      <line x1="-200.0" y1="131.0" x2="200.0" y2="131.0" />
      <line x1="-200.0" y1="-131.0" x2="200.0" y2="-131.0" />
      <line x1="200.0" y1="-131.0" x2="200.0" y2="131.0" />
      <circle cx="-154.0" cy="-70.0" r="4.0" />
      <circle cx="-154.0" cy="0.0" r="4.0" />
      <circle cx="154.0" cy="-70.0" r="4.0" />
      <circle cx="154.0" cy="0.0" r="4.0" />
      <circle cx="-154.0" cy="70.0" r="4.0" />
      <circle cx="154.0" cy="70.0" r="4.0" />
      <circle cx="154.0" cy="109.0" r="5.0" />
      <line x1="-200.0" y1="-16.0" x2="-200.0" y2="131.0" />
      <line x1="-200.0" y1="131.0" x2="200.0" y2="131.0" />
      <line x1="-16.217275" y1="131.0" x2="16.217275" y2="131.0" />
      <line x1="-16.217275" y1="131.0" x2="16.217275" y2="131.0" />
      <line x1="-16.217275" y1="-131.0" x2="16.217275" y2="-131.0" />
      <line x1="-16.217275" y1="-131.0" x2="16.217275" y2="-131.0" />
      <line x1="200.0" y1="-16.0" x2="200.0" y2="131.0" />
      <circle cx="-154.0" cy="0.0" r="4.0" />
      <circle cx="154.0" cy="0.0" r="4.0" />
      <circle cx="-154.0" cy="70.0" r="4.0" />
      <circle cx="154.0" cy="70.0" r="4.0" />
      <circle cx="154.0" cy="109.0" r="5.0" />
      <line x1="27.87472" y1="-128.0" x2="-27.87472" y2="-128.0" />
      <line x1="197.0" y1="-16.0" x2="197.0" y2="128.0" />
      <line x1="197.0" y1="128.0" x2="-197.0" y2="128.0" />
      <line x1="-197.0" y1="-16.0" x2="-197.0" y2="128.0" />
      <path d="M 16.217275,131.0 A 132.0,132.0 0.0 0,1 -16.217275,131.0" />
      <path d="M 16.217275,131.0 A 132.0,132.0 0.0 0,1 -16.217275,131.0" />
      <path d="M -16.217275,-131.0 A 132.0,132.0 0.0 0,1 16.217275,-131.0" />
      <line x1="-197.0" y1="128.0" x2="-32.249031" y2="128.0" />
      <line x1="-197.0" y1="-128.0" x2="-197.0" y2="128.0" />
      <path d="M -32.249031,128.0 A 132.0,132.0 0.0 0,1 -32.249031,-128.0" />
      <line x1="-197.0" y1="-128.0" x2="-32.249031" y2="-128.0" />
      <line x1="32.249031" y1="128.0" x2="197.0" y2="128.0" />
      <path d="M 32.249031,-128.0 A 132.0,132.0 -75.85888976606645 0,1 32.249031,128.0" />
      <line x1="197.0" y1="-128.0" x2="197.0" y2="128.0" />
      <line x1="32.249031" y1="-128.0" x2="197.0" y2="-128.0" />
      <line x1="-32.249031" y1="-128.0" x2="32.249031" y2="-128.0" />
      <line x1="-32.249031" y1="128.0" x2="32.249031" y2="128.0" />
      <path d="M -32.249031,128.0 A 132.0,132.0 0.0 0,1 -117.575508,-60.0" />
      <path d="M 32.249031,128.0 A 132.0,132.0 75.85888976606834 0,0 117.575508,-60.0" />
      <circle cx="0.0" cy="0.0" r="127.0" />
      <circle cx="0.0" cy="0.0" r="127.0" />
      <path d="M 131.0,0.0 A 131.0,131.0 0.0 1,1 -116.451707,-60.0" />
      <path d="M 116.451707,-60.0 A 131.0,131.0 0.0 0,1 131.0,-0.0" />
      <circle cx="0.0" cy="0.0" r="131.0" />
      <path d="M 121.0,0.0 A 121.0,121.0 0.0 1,1 -105.076163,-60.0" />
      <path d="M 105.076163,-60.0 A 121.0,121.0 0.0 0,1 121.0,-0.0" />
      <circle cx="0.0" cy="0.0" r="124.52941176470587" />
      <circle cx="0.0" cy="0.0" r="121.0" />
      <circle cx="0.0" cy="0.0" r="105.0" />
      <path d="M 120.215686,0.0 A 120.21568627450979,120.21568627450979 0.0 1,1 -104.172027,-60.0" />
      <path d="M 104.172027,-60.0 A 120.21568627450979,120.21568627450979 0.0 0,1 120.215686,-0.0" />
      <circle cx="-28.875" cy="-50.012967" r="8.0" />
      <circle cx="28.875" cy="-50.012967" r="8.0" />
      <circle cx="-57.75" cy="0.0" r="8.0" />
      <circle cx="-28.875" cy="50.012967" r="8.0" />
      <circle cx="0.0" cy="0.0" r="8.0" />
      <circle cx="57.75" cy="0.0" r="8.0" />
      <circle cx="28.875" cy="50.012967" r="8.0" />
      <path d="M 101.0,0.0 A 101.0,101.0 0.0 1,1 -81.246538,-60.0" />
      <path d="M 81.246538,-60.0 A 101.0,101.0 0.0 0,1 101.0,-0.0" />
      <circle cx="-28.875" cy="-50.012967" r="8.0" />
      <circle cx="28.875" cy="-50.012967" r="8.0" />
      <circle cx="-57.75" cy="0.0" r="8.0" />
      <circle cx="-28.875" cy="50.012967" r="8.0" />
      <circle cx="0.0" cy="0.0" r="8.0" />
      <circle cx="57.75" cy="0.0" r="8.0" />
      <circle cx="28.875" cy="50.012967" r="8.0" />
      <line x1="50.0" y1="152.0" x2="50.0" y2="148.0" />
      <line x1="50.0" y1="152.0" x2="50.0" y2="150.0" />
      <line x1="50.0" y1="150.0" x2="50.0" y2="148.0" />
      <line x1="50.0" y1="152.0" x2="110.0" y2="152.0" />
      <line x1="110.0" y1="152.0" x2="110.0" y2="148.0" />
      <line x1="50.0" y1="148.0" x2="110.0" y2="148.0" />
      <line x1="50.0" y1="148.0" x2="110.0" y2="148.0" />
      <path d="M 63.6,148.0 L 63.559885,148.0 L 63.44155,148.0 L 63.25093,148.0 L 62.997584,148.0 L 62.694214,148.0 L 62.356033,148.0 L 62.0,148.0 L 61.643967,148.0 L 61.305786,148.0 L 61.002416,148.0 L 60.74907,148.0 L 60.55845,148.0 L 60.440115,148.0 L 60.4,148.0" />
      <path d="M 60.4,148.0 L 60.440115,148.0 L 60.55845,148.0 L 60.74907,148.0 L 61.002416,148.0 L 61.305786,148.0 L 61.643967,148.0 L 62.0,148.0 L 62.356033,148.0 L 62.694214,148.0 L 62.997584,148.0 L 63.25093,148.0 L 63.44155,148.0 L 63.559885,148.0 L 63.6,148.0" />
      <path d="M 99.6,148.0 L 99.559885,148.0 L 99.44155,148.0 L 99.25093,148.0 L 98.997584,148.0 L 98.694214,148.0 L 98.356033,148.0 L 98.0,148.0 L 97.643967,148.0 L 97.305786,148.0 L 97.002416,148.0 L 96.74907,148.0 L 96.55845,148.0 L 96.440115,148.0 L 96.4,148.0" />
      <path d="M 96.4,148.0 L 96.440115,148.0 L 96.55845,148.0 L 96.74907,148.0 L 97.002416,148.0 L 97.305786,148.0 L 97.643967,148.0 L 98.0,148.0 L 98.356033,148.0 L 98.694214,148.0 L 98.997584,148.0 L 99.25093,148.0 L 99.44155,148.0 L 99.559885,148.0 L 99.6,148.0" />
      <line x1="110.0" y1="152.0" x2="110.0" y2="150.0" />
      <line x1="50.0" y1="150.0" x2="110.0" y2="150.0" />
      <line x1="50.0" y1="152.0" x2="110.0" y2="152.0" />
      <line x1="21.0" y1="150.0" x2="50.0" y2="150.0" />
      <line x1="110.0" y1="150.0" x2="110.0" y2="148.0" />
      <line x1="110.0" y1="150.0" x2="139.0" y2="150.0" />
      <line x1="139.0" y1="150.0" x2="139.0" y2="146.0" />
      <line x1="21.0" y1="146.0" x2="139.0" y2="146.0" />
      <line x1="21.0" y1="150.0" x2="21.0" y2="146.0" />
      <line x1="63.6" y1="151.0" x2="63.6" y2="148.0" />
      <path d="M 63.6,151.0 L 63.559885,151.0 L 63.44155,151.0 L 63.25093,151.0 L 62.997584,151.0 L 62.694214,151.0 L 62.356033,151.0 L 62.0,151.0 L 61.643967,151.0 L 61.305786,151.0 L 61.002416,151.0 L 60.74907,151.0 L 60.55845,151.0 L 60.440115,151.0 L 60.4,151.0" />
      <path d="M 60.4,151.0 L 60.440115,151.0 L 60.55845,151.0 L 60.74907,151.0 L 61.002416,151.0 L 61.305786,151.0 L 61.643967,151.0 L 62.0,151.0 L 62.356033,151.0 L 62.694214,151.0 L 62.997584,151.0 L 63.25093,151.0 L 63.44155,151.0 L 63.559885,151.0 L 63.6,151.0" />
      <line x1="99.6" y1="151.0" x2="99.6" y2="148.0" />
      <path d="M 99.6,151.0 L 99.559885,151.0 L 99.44155,151.0 L 99.25093,151.0 L 98.997584,151.0 L 98.694214,151.0 L 98.356033,151.0 L 98.0,151.0 L 97.643967,151.0 L 97.305786,151.0 L 97.002416,151.0 L 96.74907,151.0 L 96.55845,151.0 L 96.440115,151.0 L 96.4,151.0" />
      <path d="M 96.4,151.0 L 96.440115,151.0 L 96.55845,151.0 L 96.74907,151.0 L 97.002416,151.0 L 97.305786,151.0 L 97.643967,151.0 L 98.0,151.0 L 98.356033,151.0 L 98.694214,151.0 L 98.997584,151.0 L 99.25093,151.0 L 99.44155,151.0 L 99.559885,151.0 L 99.6,151.0" />
      <line x1="21.0" y1="150.0" x2="139.0" y2="150.0" />
      <path d="M 41.75,150.0 L 41.674784,150.0 L 41.452907,150.0 L 41.095494,150.0 L 40.620469,150.0 L 40.051651,150.0 L 39.417563,150.0 L 38.75,150.0 L 38.082437,150.0 L 37.448349,150.0 L 36.879531,150.0 L 36.404506,150.0 L 36.047093,150.0 L 35.825216,150.0 L 35.75,150.0" />
      <path d="M 35.75,150.0 L 35.825216,150.0 L 36.047093,150.0 L 36.404506,150.0 L 36.879531,150.0 L 37.448349,150.0 L 38.082437,150.0 L 38.75,150.0 L 39.417563,150.0 L 40.051651,150.0 L 40.620469,150.0 L 41.095494,150.0 L 41.452907,150.0 L 41.674784,150.0 L 41.75,150.0" />
      <path d="M 124.25,150.0 L 124.174784,150.0 L 123.952907,150.0 L 123.595494,150.0 L 123.120469,150.0 L 122.551651,150.0 L 121.917563,150.0 L 121.25,150.0 L 120.582437,150.0 L 119.948349,150.0 L 119.379531,150.0 L 118.904506,150.0 L 118.547093,150.0 L 118.325216,150.0 L 118.25,150.0" />
      <path d="M 118.25,150.0 L 118.325216,150.0 L 118.547093,150.0 L 118.904506,150.0 L 119.379531,150.0 L 119.948349,150.0 L 120.582437,150.0 L 121.25,150.0 L 121.917563,150.0 L 122.551651,150.0 L 123.120469,150.0 L 123.595494,150.0 L 123.952907,150.0 L 124.174784,150.0 L 124.25,150.0" />
      <path d="M 41.75,150.0 L 41.674784,150.0 L 41.452907,150.0 L 41.095494,150.0 L 40.620469,150.0 L 40.051651,150.0 L 39.417563,150.0 L 38.75,150.0 L 38.082437,150.0 L 37.448349,150.0 L 36.879531,150.0 L 36.404506,150.0 L 36.047093,150.0 L 35.825216,150.0 L 35.75,150.0" />
      <path d="M 35.75,150.0 L 35.825216,150.0 L 36.047093,150.0 L 36.404506,150.0 L 36.879531,150.0 L 37.448349,150.0 L 38.082437,150.0 L 38.75,150.0 L 39.417563,150.0 L 40.051651,150.0 L 40.620469,150.0 L 41.095494,150.0 L 41.452907,150.0 L 41.674784,150.0 L 41.75,150.0" />
      <path d="M 124.0,150.0 L 122.896828,150.0 L 119.64263,150.0 L 114.400585,150.0 L 107.433551,150.0 L 99.090885,150.0 L 89.790921,150.0 L 80.0,150.0 L 70.209079,150.0 L 60.909115,150.0 L 52.566449,150.0 L 45.599415,150.0 L 40.35737,150.0 L 37.103172,150.0 L 36.0,150.0" />
      <path d="M 36.0,150.0 L 37.103172,150.0 L 40.35737,150.0 L 45.599415,150.0 L 52.566449,150.0 L 60.909115,150.0 L 70.209079,150.0 L 80.0,150.0 L 89.790921,150.0 L 99.090885,150.0 L 107.433551,150.0 L 114.400585,150.0 L 119.64263,150.0 L 122.896828,150.0 L 124.0,150.0" />
      <path d="M 124.25,150.0 L 124.174784,150.0 L 123.952907,150.0 L 123.595494,150.0 L 123.120469,150.0 L 122.551651,150.0 L 121.917563,150.0 L 121.25,150.0 L 120.582437,150.0 L 119.948349,150.0 L 119.379531,150.0 L 118.904506,150.0 L 118.547093,150.0 L 118.325216,150.0 L 118.25,150.0" />
      <path d="M 118.25,150.0 L 118.325216,150.0 L 118.547093,150.0 L 118.904506,150.0 L 119.379531,150.0 L 119.948349,150.0 L 120.582437,150.0 L 121.25,150.0 L 121.917563,150.0 L 122.551651,150.0 L 123.120469,150.0 L 123.595494,150.0 L 123.952907,150.0 L 124.174784,150.0 L 124.25,150.0" />
      <line x1="139.0" y1="150.0" x2="139.0" y2="146.0" />
      <line x1="21.0" y1="146.0" x2="139.0" y2="146.0" />
      <path d="M 41.75,146.0 L 41.674784,146.0 L 41.452907,146.0 L 41.095494,146.0 L 40.620469,146.0 L 40.051651,146.0 L 39.417563,146.0 L 38.75,146.0 L 38.082437,146.0 L 37.448349,146.0 L 36.879531,146.0 L 36.404506,146.0 L 36.047093,146.0 L 35.825216,146.0 L 35.75,146.0" />
      <path d="M 35.75,146.0 L 35.825216,146.0 L 36.047093,146.0 L 36.404506,146.0 L 36.879531,146.0 L 37.448349,146.0 L 38.082437,146.0 L 38.75,146.0 L 39.417563,146.0 L 40.051651,146.0 L 40.620469,146.0 L 41.095494,146.0 L 41.452907,146.0 L 41.674784,146.0 L 41.75,146.0" />
      <path d="M 124.25,146.0 L 124.174784,146.0 L 123.952907,146.0 L 123.595494,146.0 L 123.120469,146.0 L 122.551651,146.0 L 121.917563,146.0 L 121.25,146.0 L 120.582437,146.0 L 119.948349,146.0 L 119.379531,146.0 L 118.904506,146.0 L 118.547093,146.0 L 118.325216,146.0 L 118.25,146.0" />
      <path d="M 118.25,146.0 L 118.325216,146.0 L 118.547093,146.0 L 118.904506,146.0 L 119.379531,146.0 L 119.948349,146.0 L 120.582437,146.0 L 121.25,146.0 L 121.917563,146.0 L 122.551651,146.0 L 123.120469,146.0 L 123.595494,146.0 L 123.952907,146.0 L 124.174784,146.0 L 124.25,146.0" />
      <path d="M 41.75,146.0 L 41.674784,146.0 L 41.452907,146.0 L 41.095494,146.0 L 40.620469,146.0 L 40.051651,146.0 L 39.417563,146.0 L 38.75,146.0 L 38.082437,146.0 L 37.448349,146.0 L 36.879531,146.0 L 36.404506,146.0 L 36.047093,146.0 L 35.825216,146.0 L 35.75,146.0" />
      <path d="M 35.75,146.0 L 35.825216,146.0 L 36.047093,146.0 L 36.404506,146.0 L 36.879531,146.0 L 37.448349,146.0 L 38.082437,146.0 L 38.75,146.0 L 39.417563,146.0 L 40.051651,146.0 L 40.620469,146.0 L 41.095494,146.0 L 41.452907,146.0 L 41.674784,146.0 L 41.75,146.0" />
      <path d="M 127.0,146.0 L 125.821612,146.0 L 122.345537,146.0 L 116.74608,146.0 L 109.304021,146.0 L 100.392536,146.0 L 90.458484,146.0 L 80.0,146.0 L 69.541516,146.0 L 59.607464,146.0 L 50.695979,146.0 L 43.25392,146.0 L 37.654463,146.0 L 34.178388,146.0 L 33.0,146.0" />
      <path d="M 33.0,146.0 L 34.178388,146.0 L 37.654463,146.0 L 43.25392,146.0 L 50.695979,146.0 L 59.607464,146.0 L 69.541516,146.0 L 80.0,146.0 L 90.458484,146.0 L 100.392536,146.0 L 109.304021,146.0 L 116.74608,146.0 L 122.345537,146.0 L 125.821612,146.0 L 127.0,146.0" />
      <path d="M 124.25,146.0 L 124.174784,146.0 L 123.952907,146.0 L 123.595494,146.0 L 123.120469,146.0 L 122.551651,146.0 L 121.917563,146.0 L 121.25,146.0 L 120.582437,146.0 L 119.948349,146.0 L 119.379531,146.0 L 118.904506,146.0 L 118.547093,146.0 L 118.325216,146.0 L 118.25,146.0" />
      <path d="M 118.25,146.0 L 118.325216,146.0 L 118.547093,146.0 L 118.904506,146.0 L 119.379531,146.0 L 119.948349,146.0 L 120.582437,146.0 L 121.25,146.0 L 121.917563,146.0 L 122.551651,146.0 L 123.120469,146.0 L 123.595494,146.0 L 123.952907,146.0 L 124.174784,146.0 L 124.25,146.0" />
      <line x1="21.0" y1="150.0" x2="21.0" y2="146.0" />
      <line x1="41.75" y1="150.0" x2="41.75" y2="146.0" />
      <line x1="124.25" y1="150.0" x2="124.25" y2="146.0" />
      <line x1="41.75" y1="150.0" x2="41.75" y2="146.0" />
      <path d="M 123.974424,145.8 L 123.762142,145.8 L 123.335949,145.8 L 122.697929,145.8 L 121.851199,145.8 L 120.799899,145.8 L 119.549167,145.8 L 118.105118,145.8 L 116.474809,145.8 L 114.66621,145.8 L 112.688162,145.8 L 110.550332,145.8 L 108.263171,145.8 L 105.837859,145.8 L 103.28625,145.8" />
      <line x1="123.974424" y1="146.0" x2="123.974424" y2="145.8" />
      <path d="M 124.0,146.0 Q 123.999943,146.0 123.974424,146.0" />
      <line x1="124.0" y1="150.0" x2="124.0" y2="146.0" />
      <path d="M 123.974424,146.0 Q 123.999943,146.0 124.0,146.0" />
      <line x1="123.974424" y1="146.0" x2="123.974424" y2="145.8" />
      <path d="M 103.28625,145.8 L 105.837859,145.8 L 108.263171,145.8 L 110.550332,145.8 L 112.688162,145.8 L 114.66621,145.8 L 116.474809,145.8 L 118.105118,145.8 L 119.549167,145.8 L 120.799899,145.8 L 121.851199,145.8 L 122.697929,145.8 L 123.335949,145.8 L 123.762142,145.8 L 123.974424,145.8" />
      <line x1="103.28625" y1="146.0" x2="103.28625" y2="145.8" />
      <path d="M 100.688174,146.0 Q 102.012675,146.0 103.28625,146.0" />
      <line x1="100.688174" y1="146.0" x2="100.688174" y2="145.8" />
      <path d="M 59.311826,145.8 L 62.075717,145.8 L 64.927222,145.8 L 67.852403,145.8 L 70.836963,145.8 L 73.866312,145.8 L 76.925642,145.8 L 80.0,145.8 L 83.074358,145.8 L 86.133688,145.8 L 89.163037,145.8 L 92.147597,145.8 L 95.072778,145.8 L 97.924283,145.8 L 100.688174,145.8" />
      <line x1="59.311826" y1="146.0" x2="59.311826" y2="145.8" />
      <path d="M 56.71375,146.0 Q 57.987325,146.0 59.311826,146.0" />
      <line x1="56.71375" y1="146.0" x2="56.71375" y2="145.8" />
      <path d="M 36.025576,145.8 L 36.237858,145.8 L 36.664051,145.8 L 37.302071,145.8 L 38.148801,145.8 L 39.200101,145.8 L 40.450833,145.8 L 41.894882,145.8 L 43.525191,145.8 L 45.33379,145.8 L 47.311838,145.8 L 49.449668,145.8 L 51.736829,145.8 L 54.162141,145.8 L 56.71375,145.8" />
      <line x1="36.025576" y1="146.0" x2="36.025576" y2="145.8" />
      <path d="M 36.025576,146.0 Q 36.000057,146.0 36.0,146.0" />
      <path d="M 36.0,146.0 Q 36.000057,146.0 36.025576,146.0" />
      <line x1="36.025576" y1="146.0" x2="36.025576" y2="145.8" />
      <path d="M 56.71375,145.8 L 54.162141,145.8 L 51.736829,145.8 L 49.449668,145.8 L 47.311838,145.8 L 45.33379,145.8 L 43.525191,145.8 L 41.894882,145.8 L 40.450833,145.8 L 39.200101,145.8 L 38.148801,145.8 L 37.302071,145.8 L 36.664051,145.8 L 36.237858,145.8 L 36.025576,145.8" />
      <line x1="56.71375" y1="146.0" x2="56.71375" y2="145.8" />
      <path d="M 59.311826,146.0 Q 57.987325,146.0 56.71375,146.0" />
      <line x1="59.311826" y1="146.0" x2="59.311826" y2="145.8" />
      <path d="M 100.688174,145.8 L 97.924283,145.8 L 95.072778,145.8 L 92.147597,145.8 L 89.163037,145.8 L 86.133688,145.8 L 83.074358,145.8 L 80.0,145.8 L 76.925642,145.8 L 73.866312,145.8 L 70.836963,145.8 L 67.852403,145.8 L 64.927222,145.8 L 62.075717,145.8 L 59.311826,145.8" />
      <line x1="100.688174" y1="146.0" x2="100.688174" y2="145.8" />
      <path d="M 103.28625,146.0 Q 102.012675,146.0 100.688174,146.0" />
      <line x1="103.28625" y1="146.0" x2="103.28625" y2="145.8" />
      <line x1="124.25" y1="150.0" x2="124.25" y2="146.0" />
      <line x1="127.0" y1="146.0" x2="127.0" y2="145.8" />
      <path d="M 127.0,145.8 L 125.821612,145.8 L 122.345537,145.8 L 116.74608,145.8 L 109.304021,145.8 L 100.392536,145.8 L 90.458484,145.8 L 80.0,145.8 L 69.541516,145.8 L 59.607464,145.8 L 50.695979,145.8 L 43.25392,145.8 L 37.654463,145.8 L 34.178388,145.8 L 33.0,145.8" />
      <path d="M 33.0,145.8 L 34.178388,145.8 L 37.654463,145.8 L 43.25392,145.8 L 50.695979,145.8 L 59.607464,145.8 L 69.541516,145.8 L 80.0,145.8 L 90.458484,145.8 L 100.392536,145.8 L 109.304021,145.8 L 116.74608,145.8 L 122.345537,145.8 L 125.821612,145.8 L 127.0,145.8" />
      <line x1="124.0" y1="145.8" x2="123.974424" y2="145.8" />
      <line x1="124.0" y1="145.8" x2="123.974424" y2="145.8" />
      <line x1="103.28625" y1="145.8" x2="103.299038" y2="145.8" />
      <line x1="100.700962" y1="145.8" x2="103.299038" y2="145.8" />
      <line x1="100.688174" y1="145.8" x2="100.700962" y2="145.8" />
      <line x1="59.299038" y1="145.8" x2="59.311826" y2="145.8" />
      <line x1="59.299038" y1="145.8" x2="56.700962" y2="145.8" />
      <line x1="56.700962" y1="145.8" x2="56.71375" y2="145.8" />
      <line x1="36.025576" y1="145.8" x2="36.0" y2="145.8" />
      <line x1="36.025576" y1="145.8" x2="36.0" y2="145.8" />
      <line x1="56.700962" y1="145.8" x2="56.71375" y2="145.8" />
      <line x1="56.700962" y1="145.8" x2="59.299038" y2="145.8" />
      <line x1="59.299038" y1="145.8" x2="59.311826" y2="145.8" />
      <line x1="100.688174" y1="145.8" x2="100.700962" y2="145.8" />
      <line x1="103.299038" y1="145.8" x2="100.700962" y2="145.8" />
      <line x1="103.28625" y1="145.8" x2="103.299038" y2="145.8" />
      <line x1="122.973829" y1="146.0" x2="122.973829" y2="143.0" />
      <line x1="122.973829" y1="146.0" x2="123.974424" y2="146.0" />
      <line x1="124.0" y1="145.8" x2="124.0" y2="143.0" />
      <line x1="122.973829" y1="143.0" x2="124.0" y2="143.0" />
      <line x1="100.688174" y1="146.0" x2="100.187877" y2="146.0" />
      <path d="M 100.187877,146.0 L 97.490207,146.0 L 94.707322,146.0 L 91.852779,146.0 L 88.940487,146.0 L 85.984635,146.0 L 82.999625,146.0 L 80.0,146.0 L 77.000375,146.0 L 74.015365,146.0 L 71.059513,146.0 L 68.147221,146.0 L 65.292678,146.0 L 62.509793,146.0 L 59.812123,146.0" />
      <line x1="59.812123" y1="146.0" x2="59.311826" y2="146.0" />
      <line x1="57.214047" y1="146.0" x2="56.71375" y2="146.0" />
      <path d="M 57.214047,146.0 L 54.725705,146.0 L 52.360504,146.0 L 50.129969,146.0 L 48.044967,146.0 L 46.115657,146.0 L 44.351439,146.0 L 42.760908,146.0 L 41.351814,146.0 L 40.131022,146.0 L 39.10448,146.0 L 38.27719,146.0 L 37.653182,146.0 L 37.235498,146.0 L 37.026171,146.0" />
      <line x1="36.025576" y1="146.0" x2="37.026171" y2="146.0" />
      <line x1="36.025576" y1="146.0" x2="37.026171" y2="146.0" />
      <path d="M 37.026171,146.0 L 37.235498,146.0 L 37.653182,146.0 L 38.27719,146.0 L 39.10448,146.0 L 40.131022,146.0 L 41.351814,146.0 L 42.760908,146.0 L 44.351439,146.0 L 46.115657,146.0 L 48.044967,146.0 L 50.129969,146.0 L 52.360504,146.0 L 54.725705,146.0 L 57.214047,146.0" />
      <line x1="57.214047" y1="146.0" x2="56.71375" y2="146.0" />
      <line x1="59.812123" y1="146.0" x2="59.311826" y2="146.0" />
      <path d="M 59.812123,146.0 L 62.509793,146.0 L 65.292678,146.0 L 68.147221,146.0 L 71.059513,146.0 L 74.015365,146.0 L 77.000375,146.0 L 80.0,146.0 L 82.999625,146.0 L 85.984635,146.0 L 88.940487,146.0 L 91.852779,146.0 L 94.707322,146.0 L 97.490207,146.0 L 100.187877,146.0" />
      <line x1="100.688174" y1="146.0" x2="100.187877" y2="146.0" />
      <line x1="103.28625" y1="146.0" x2="102.785953" y2="146.0" />
      <path d="M 102.785953,146.0 L 105.274295,146.0 L 107.639496,146.0 L 109.870031,146.0 L 111.955033,146.0 L 113.884343,146.0 L 115.648561,146.0 L 117.239092,146.0 L 118.648186,146.0 L 119.868978,146.0 L 120.89552,146.0 L 121.72281,146.0 L 122.346818,146.0 L 122.764502,146.0 L 122.973829,146.0" />
      <line x1="122.973829" y1="146.0" x2="123.974424" y2="146.0" />
      <path d="M 122.973829,146.0 L 122.764502,146.0 L 122.346818,146.0 L 121.72281,146.0 L 120.89552,146.0 L 119.868978,146.0 L 118.648186,146.0 L 117.239092,146.0 L 115.648561,146.0 L 113.884343,146.0 L 111.955033,146.0 L 109.870031,146.0 L 107.639496,146.0 L 105.274295,146.0 L 102.785953,146.0" />
      <line x1="103.28625" y1="146.0" x2="102.785953" y2="146.0" />
      <path d="M 61.313106,146.0 L 63.81208,146.0 L 66.389083,146.0 L 69.031693,146.0 L 71.727172,146.0 L 74.462528,146.0 L 77.224575,146.0 L 80.0,146.0 L 82.775425,146.0 L 85.537472,146.0 L 88.272828,146.0 L 90.968307,146.0 L 93.610917,146.0 L 96.18792,146.0 L 98.686894,146.0" />
      <line x1="77.36998" y1="146.0" x2="61.313106" y2="146.0" />
      <path d="M 74.771903,146.0 C 75.533684,146.0 76.419933,146.0 77.36998,146.0" />
      <line x1="74.771903" y1="146.0" x2="58.715029" y2="146.0" />
      <path d="M 40.028135,146.0 L 40.228549,146.0 L 40.620668,146.0 L 41.202603,146.0 L 41.971548,146.0 L 42.923797,146.0 L 44.054759,146.0 L 45.358984,146.0 L 46.830184,146.0 L 48.461269,146.0 L 50.244376,146.0 L 52.17091,146.0 L 54.231586,146.0 L 56.416469,146.0 L 58.715029,146.0" />
      <line x1="40.028135" y1="146.0" x2="72.141883" y2="146.0" />
      <path d="M 72.141883,146.0 Q 72.000477,146.0 72.0,146.0" />
      <path d="M 72.0,146.0 Q 72.000477,146.0 72.141883,146.0" />
      <line x1="40.028135" y1="146.0" x2="72.141883" y2="146.0" />
      <path d="M 58.715029,146.0 L 56.416469,146.0 L 54.231586,146.0 L 52.17091,146.0 L 50.244376,146.0 L 48.461269,146.0 L 46.830184,146.0 L 45.358984,146.0 L 44.054759,146.0 L 42.923797,146.0 L 41.971548,146.0 L 41.202603,146.0 L 40.620668,146.0 L 40.228549,146.0 L 40.028135,146.0" />
      <line x1="74.771903" y1="146.0" x2="58.715029" y2="146.0" />
      <path d="M 77.36998,146.0 C 76.419933,146.0 75.533684,146.0 74.771903,146.0" />
      <line x1="77.36998" y1="146.0" x2="61.313106" y2="146.0" />
      <path d="M 98.686894,146.0 L 96.18792,146.0 L 93.610917,146.0 L 90.968307,146.0 L 88.272828,146.0 L 85.537472,146.0 L 82.775425,146.0 L 80.0,146.0 L 77.224575,146.0 L 74.462528,146.0 L 71.727172,146.0 L 69.031693,146.0 L 66.389083,146.0 L 63.81208,146.0 L 61.313106,146.0" />
      <line x1="98.686894" y1="146.0" x2="82.63002" y2="146.0" />
      <path d="M 85.228097,146.0 C 84.466316,146.0 83.580067,146.0 82.63002,146.0" />
      <line x1="101.284971" y1="146.0" x2="85.228097" y2="146.0" />
      <path d="M 119.971865,146.0 L 119.771451,146.0 L 119.379332,146.0 L 118.797397,146.0 L 118.028452,146.0 L 117.076203,146.0 L 115.945241,146.0 L 114.641016,146.0 L 113.169816,146.0 L 111.538731,146.0 L 109.755624,146.0 L 107.82909,146.0 L 105.768414,146.0 L 103.583531,146.0 L 101.284971,146.0" />
      <line x1="87.858117" y1="146.0" x2="119.971865" y2="146.0" />
      <path d="M 88.0,146.0 Q 87.999523,146.0 87.858117,146.0" />
      <path d="M 87.858117,146.0 Q 87.999523,146.0 88.0,146.0" />
      <line x1="87.858117" y1="146.0" x2="119.971865" y2="146.0" />
      <path d="M 101.284971,146.0 L 103.583531,146.0 L 105.768414,146.0 L 107.82909,146.0 L 109.755624,146.0 L 111.538731,146.0 L 113.169816,146.0 L 114.641016,146.0 L 115.945241,146.0 L 117.076203,146.0 L 118.028452,146.0 L 118.797397,146.0 L 119.379332,146.0 L 119.771451,146.0 L 119.971865,146.0" />
      <line x1="101.284971" y1="146.0" x2="85.228097" y2="146.0" />
      <path d="M 82.63002,146.0 C 83.580067,146.0 84.466316,146.0 85.228097,146.0" />
      <line x1="98.686894" y1="146.0" x2="82.63002" y2="146.0" />
      <line x1="122.973829" y1="146.0" x2="122.973829" y2="143.0" />
      <line x1="124.0" y1="145.8" x2="124.0" y2="143.0" />
      <line x1="122.973829" y1="143.0" x2="124.0" y2="143.0" />
      <line x1="102.785953" y1="146.0" x2="102.785953" y2="143.0" />
      <line x1="103.299038" y1="143.0" x2="102.785953" y2="143.0" />
      <line x1="103.299038" y1="145.8" x2="103.299038" y2="143.0" />
      <line x1="100.187877" y1="146.0" x2="100.187877" y2="143.0" />
      <line x1="100.700962" y1="143.0" x2="100.187877" y2="143.0" />
      <line x1="100.700962" y1="145.8" x2="100.700962" y2="143.0" />
      <line x1="59.812123" y1="146.0" x2="59.812123" y2="143.0" />
      <line x1="59.299038" y1="145.8" x2="59.299038" y2="143.0" />
      <line x1="59.812123" y1="143.0" x2="59.299038" y2="143.0" />
      <line x1="57.214047" y1="146.0" x2="57.214047" y2="143.0" />
      <line x1="56.700962" y1="145.8" x2="56.700962" y2="143.0" />
      <line x1="57.214047" y1="143.0" x2="56.700962" y2="143.0" />
      <line x1="37.026171" y1="146.0" x2="37.026171" y2="143.0" />
      <line x1="36.0" y1="143.0" x2="37.026171" y2="143.0" />
      <line x1="36.0" y1="145.8" x2="36.0" y2="143.0" />
      <line x1="37.026171" y1="146.0" x2="37.026171" y2="143.0" />
      <line x1="36.0" y1="143.0" x2="37.026171" y2="143.0" />
      <line x1="36.0" y1="145.8" x2="36.0" y2="143.0" />
      <line x1="57.214047" y1="146.0" x2="57.214047" y2="143.0" />
      <line x1="56.700962" y1="145.8" x2="56.700962" y2="143.0" />
      <line x1="57.214047" y1="143.0" x2="56.700962" y2="143.0" />
      <line x1="59.812123" y1="146.0" x2="59.812123" y2="143.0" />
      <line x1="59.299038" y1="145.8" x2="59.299038" y2="143.0" />
      <line x1="59.812123" y1="143.0" x2="59.299038" y2="143.0" />
      <line x1="100.187877" y1="146.0" x2="100.187877" y2="143.0" />
      <line x1="100.700962" y1="143.0" x2="100.187877" y2="143.0" />
      <line x1="100.700962" y1="145.8" x2="100.700962" y2="143.0" />
      <line x1="102.785953" y1="146.0" x2="102.785953" y2="143.0" />
      <line x1="103.299038" y1="143.0" x2="102.785953" y2="143.0" />
      <line x1="103.299038" y1="145.8" x2="103.299038" y2="143.0" />
      <line x1="103.299038" y1="143.0" x2="100.700962" y2="143.0" />
      <line x1="56.700962" y1="143.0" x2="59.299038" y2="143.0" />
      <line x1="59.299038" y1="143.0" x2="56.700962" y2="143.0" />
      <line x1="100.700962" y1="143.0" x2="103.299038" y2="143.0" />
      <path d="M 122.973829,143.0 L 122.764502,143.0 L 122.346818,143.0 L 121.72281,143.0 L 120.89552,143.0 L 119.868978,143.0 L 118.648186,143.0 L 117.239092,143.0 L 115.648561,143.0 L 113.884343,143.0 L 111.955033,143.0 L 109.870031,143.0 L 107.639496,143.0 L 105.274295,143.0 L 102.785953,143.0" />
      <path d="M 100.187877,143.0 L 97.490207,143.0 L 94.707322,143.0 L 91.852779,143.0 L 88.940487,143.0 L 85.984635,143.0 L 82.999625,143.0 L 80.0,143.0 L 77.000375,143.0 L 74.015365,143.0 L 71.059513,143.0 L 68.147221,143.0 L 65.292678,143.0 L 62.509793,143.0 L 59.812123,143.0" />
      <path d="M 57.214047,143.0 L 54.725705,143.0 L 52.360504,143.0 L 50.129969,143.0 L 48.044967,143.0 L 46.115657,143.0 L 44.351439,143.0 L 42.760908,143.0 L 41.351814,143.0 L 40.131022,143.0 L 39.10448,143.0 L 38.27719,143.0 L 37.653182,143.0 L 37.235498,143.0 L 37.026171,143.0" />
      <path d="M 37.026171,143.0 L 37.235498,143.0 L 37.653182,143.0 L 38.27719,143.0 L 39.10448,143.0 L 40.131022,143.0 L 41.351814,143.0 L 42.760908,143.0 L 44.351439,143.0 L 46.115657,143.0 L 48.044967,143.0 L 50.129969,143.0 L 52.360504,143.0 L 54.725705,143.0 L 57.214047,143.0" />
      <path d="M 59.812123,143.0 L 62.509793,143.0 L 65.292678,143.0 L 68.147221,143.0 L 71.059513,143.0 L 74.015365,143.0 L 77.000375,143.0 L 80.0,143.0 L 82.999625,143.0 L 85.984635,143.0 L 88.940487,143.0 L 91.852779,143.0 L 94.707322,143.0 L 97.490207,143.0 L 100.187877,143.0" />
      <path d="M 102.785953,143.0 L 105.274295,143.0 L 107.639496,143.0 L 109.870031,143.0 L 111.955033,143.0 L 113.884343,143.0 L 115.648561,143.0 L 117.239092,143.0 L 118.648186,143.0 L 119.868978,143.0 L 120.89552,143.0 L 121.72281,143.0 L 122.346818,143.0 L 122.764502,143.0 L 122.973829,143.0" />
      <path d="M 61.313106,143.0 L 63.81208,143.0 L 66.389083,143.0 L 69.031693,143.0 L 71.727172,143.0 L 74.462528,143.0 L 77.224575,143.0 L 80.0,143.0 L 82.775425,143.0 L 85.537472,143.0 L 88.272828,143.0 L 90.968307,143.0 L 93.610917,143.0 L 96.18792,143.0 L 98.686894,143.0" />
      <line x1="80.0" y1="143.0" x2="61.313106" y2="143.0" />
      <line x1="98.686894" y1="143.0" x2="80.0" y2="143.0" />
      <line x1="82.598076" y1="143.0" x2="119.971865" y2="143.0" />
      <line x1="101.284971" y1="143.0" x2="82.598076" y2="143.0" />
      <path d="M 119.971865,143.0 L 119.771451,143.0 L 119.379332,143.0 L 118.797397,143.0 L 118.028452,143.0 L 117.076203,143.0 L 115.945241,143.0 L 114.641016,143.0 L 113.169816,143.0 L 111.538731,143.0 L 109.755624,143.0 L 107.82909,143.0 L 105.768414,143.0 L 103.583531,143.0 L 101.284971,143.0" />
      <line x1="82.598076" y1="143.0" x2="119.971865" y2="143.0" />
      <path d="M 101.284971,143.0 L 103.583531,143.0 L 105.768414,143.0 L 107.82909,143.0 L 109.755624,143.0 L 111.538731,143.0 L 113.169816,143.0 L 114.641016,143.0 L 115.945241,143.0 L 117.076203,143.0 L 118.028452,143.0 L 118.797397,143.0 L 119.379332,143.0 L 119.771451,143.0 L 119.971865,143.0" />
      <line x1="101.284971" y1="143.0" x2="82.598076" y2="143.0" />
      <line x1="98.686894" y1="143.0" x2="80.0" y2="143.0" />
      <line x1="80.0" y1="143.0" x2="61.313106" y2="143.0" />
      <path d="M 98.686894,143.0 L 96.18792,143.0 L 93.610917,143.0 L 90.968307,143.0 L 88.272828,143.0 L 85.537472,143.0 L 82.775425,143.0 L 80.0,143.0 L 77.224575,143.0 L 74.462528,143.0 L 71.727172,143.0 L 69.031693,143.0 L 66.389083,143.0 L 63.81208,143.0 L 61.313106,143.0" />
      <line x1="40.028135" y1="143.0" x2="77.401924" y2="143.0" />
      <path d="M 58.715029,143.0 L 56.416469,143.0 L 54.231586,143.0 L 52.17091,143.0 L 50.244376,143.0 L 48.461269,143.0 L 46.830184,143.0 L 45.358984,143.0 L 44.054759,143.0 L 42.923797,143.0 L 41.971548,143.0 L 41.202603,143.0 L 40.620668,143.0 L 40.228549,143.0 L 40.028135,143.0" />
      <line x1="77.401924" y1="143.0" x2="58.715029" y2="143.0" />
      <line x1="40.028135" y1="143.0" x2="77.401924" y2="143.0" />
      <line x1="77.401924" y1="143.0" x2="58.715029" y2="143.0" />
      <path d="M 40.028135,143.0 L 40.228549,143.0 L 40.620668,143.0 L 41.202603,143.0 L 41.971548,143.0 L 42.923797,143.0 L 44.054759,143.0 L 45.358984,143.0 L 46.830184,143.0 L 48.461269,143.0 L 50.244376,143.0 L 52.17091,143.0 L 54.231586,143.0 L 56.416469,143.0 L 58.715029,143.0" />
      <line x1="61.313106" y1="146.0" x2="61.313106" y2="143.0" />
      <line x1="98.686894" y1="146.0" x2="98.686894" y2="143.0" />
      <line x1="80.0" y1="146.0" x2="77.36998" y2="146.0" />
      <line x1="80.0" y1="146.0" x2="80.0" y2="143.0" />
      <line x1="88.0" y1="150.0" x2="88.0" y2="146.0" />
      <path d="M 87.858117,146.0 L 87.777366,146.0 L 87.678808,146.0 L 87.562669,146.0 L 87.429214,146.0 L 87.278748,146.0 L 87.111617,146.0 L 86.928203,146.0 L 86.728926,146.0 L 86.514243,146.0 L 86.284644,146.0 L 86.040655,146.0 L 85.782836,146.0 L 85.511776,146.0 L 85.228097,146.0" />
      <path d="M 82.63002,146.0 C 80.941748,146.0 79.058252,146.0 77.36998,146.0" />
      <path d="M 74.771903,146.0 L 74.488224,146.0 L 74.217164,146.0 L 73.959345,146.0 L 73.715356,146.0 L 73.485757,146.0 L 73.271074,146.0 L 73.071797,146.0 L 72.888383,146.0 L 72.721252,146.0 L 72.570786,146.0 L 72.437331,146.0 L 72.321192,146.0 L 72.222634,146.0 L 72.141883,146.0" />
      <path d="M 72.141883,146.0 L 72.222634,146.0 L 72.321192,146.0 L 72.437331,146.0 L 72.570786,146.0 L 72.721252,146.0 L 72.888383,146.0 L 73.071797,146.0 L 73.271074,146.0 L 73.485757,146.0 L 73.715356,146.0 L 73.959345,146.0 L 74.217164,146.0 L 74.488224,146.0 L 74.771903,146.0" />
      <path d="M 77.36998,146.0 C 79.058252,146.0 80.941748,146.0 82.63002,146.0" />
      <path d="M 85.228097,146.0 L 85.511776,146.0 L 85.782836,146.0 L 86.040655,146.0 L 86.284644,146.0 L 86.514243,146.0 L 86.728926,146.0 L 86.928203,146.0 L 87.111617,146.0 L 87.278748,146.0 L 87.429214,146.0 L 87.562669,146.0 L 87.678808,146.0 L 87.777366,146.0 L 87.858117,146.0" />
      <path d="M 88.0,150.0 L 87.799423,150.0 L 87.207751,150.0 L 86.254652,150.0 L 84.987918,150.0 L 83.47107,150.0 L 81.780167,150.0 L 80.0,150.0 L 78.219833,150.0 L 76.52893,150.0 L 75.012082,150.0 L 73.745348,150.0 L 72.792249,150.0 L 72.200577,150.0 L 72.0,150.0" />
      <path d="M 72.0,150.0 L 72.200577,150.0 L 72.792249,150.0 L 73.745348,150.0 L 75.012082,150.0 L 76.52893,150.0 L 78.219833,150.0 L 80.0,150.0 L 81.780167,150.0 L 83.47107,150.0 L 84.987918,150.0 L 86.254652,150.0 L 87.207751,150.0 L 87.799423,150.0 L 88.0,150.0" />
      <line x1="77.401924" y1="146.0" x2="74.771903" y2="146.0" />
      <line x1="58.715029" y1="146.0" x2="58.715029" y2="143.0" />
      <line x1="77.401924" y1="143.0" x2="77.401924" y2="146.0" />
      <line x1="40.028135" y1="146.0" x2="40.028135" y2="143.0" />
      <line x1="72.141883" y1="146.0" x2="77.401924" y2="146.0" />
      <line x1="72.141883" y1="146.0" x2="77.401924" y2="146.0" />
      <line x1="77.401924" y1="146.0" x2="77.401924" y2="143.0" />
      <line x1="40.028135" y1="146.0" x2="40.028135" y2="143.0" />
      <line x1="58.715029" y1="146.0" x2="58.715029" y2="143.0" />
      <line x1="77.401924" y1="146.0" x2="74.771903" y2="146.0" />
      <line x1="80.0" y1="146.0" x2="77.36998" y2="146.0" />
      <line x1="61.313106" y1="146.0" x2="61.313106" y2="143.0" />
      <line x1="80.0" y1="146.0" x2="80.0" y2="143.0" />
      <line x1="98.686894" y1="146.0" x2="98.686894" y2="143.0" />
      <line x1="82.63002" y1="146.0" x2="80.0" y2="146.0" />
      <line x1="85.228097" y1="146.0" x2="82.598076" y2="146.0" />
      <line x1="82.598076" y1="143.0" x2="82.598076" y2="146.0" />
      <line x1="101.284971" y1="146.0" x2="101.284971" y2="143.0" />
      <line x1="119.971865" y1="146.0" x2="119.971865" y2="143.0" />
      <line x1="82.598076" y1="146.0" x2="87.858117" y2="146.0" />
      <line x1="82.598076" y1="146.0" x2="87.858117" y2="146.0" />
      <line x1="119.971865" y1="146.0" x2="119.971865" y2="143.0" />
      <line x1="82.598076" y1="146.0" x2="82.598076" y2="143.0" />
      <line x1="101.284971" y1="146.0" x2="101.284971" y2="143.0" />
      <line x1="85.228097" y1="146.0" x2="82.598076" y2="146.0" />
      <line x1="82.63002" y1="146.0" x2="80.0" y2="146.0" />
      <line x1="158.8" y1="123.6" x2="158.8" y2="144.4" />
      <line x1="158.8" y1="123.6" x2="158.8" y2="144.4" />
      <line x1="208.6" y1="123.6" x2="210.0" y2="123.6" />
      <line x1="164.2" y1="123.6" x2="208.6" y2="123.6" />
      <line x1="158.8" y1="123.6" x2="164.2" y2="123.6" />
      <line x1="158.8" y1="123.6" x2="214.0" y2="123.6" />
      <line x1="158.8" y1="144.4" x2="161.2" y2="144.4" />
      <line x1="161.2" y1="128.4" x2="161.2" y2="144.4" />
      <line x1="164.2" y1="128.4" x2="161.2" y2="128.4" />
      <line x1="164.2" y1="123.6" x2="164.2" y2="128.4" />
      <line x1="187.6" y1="144.4" x2="211.6" y2="144.4" />
      <line x1="185.2" y1="144.4" x2="187.6" y2="144.4" />
      <line x1="161.2" y1="144.4" x2="185.2" y2="144.4" />
      <line x1="158.8" y1="144.4" x2="214.0" y2="144.4" />
      <line x1="211.6" y1="144.4" x2="214.0" y2="144.4" />
      <line x1="214.0" y1="123.6" x2="214.0" y2="144.4" />
      <line x1="214.0" y1="134.0" x2="214.0" y2="144.4" />
      <line x1="208.6" y1="123.6" x2="208.6" y2="128.4" />
      <line x1="210.0" y1="128.4" x2="208.6" y2="128.4" />
      <line x1="211.6" y1="134.0" x2="211.6" y2="144.4" />
      <line x1="208.6" y1="123.6" x2="208.6" y2="128.4" />
      <line x1="185.2" y1="131.6" x2="187.6" y2="131.6" />
      <line x1="185.2" y1="131.6" x2="185.2" y2="144.4" />
      <line x1="161.2" y1="128.4" x2="161.2" y2="144.4" />
      <line x1="161.2" y1="128.4" x2="164.2" y2="128.4" />
      <line x1="164.2" y1="123.6" x2="164.2" y2="128.4" />
      <line x1="208.6" y1="128.4" x2="211.6" y2="128.4" />
      <line x1="211.6" y1="128.4" x2="211.6" y2="144.4" />
      <line x1="187.6" y1="131.6" x2="187.6" y2="144.4" />
      <line x1="187.6" y1="131.6" x2="187.6" y2="144.4" />
      <line x1="187.6" y1="144.4" x2="187.6" y2="139.6" />
      <line x1="187.6" y1="144.4" x2="187.6" y2="139.6" />
      <line x1="187.6" y1="144.4" x2="187.6" y2="139.6" />
      <line x1="187.6" y1="144.4" x2="187.6" y2="139.6" />
      <line x1="187.6" y1="144.4" x2="187.6" y2="139.6" />
      <line x1="187.6" y1="144.4" x2="187.6" y2="139.6" />
      <line x1="187.6" y1="144.4" x2="187.6" y2="139.6" />
      <line x1="187.6" y1="144.4" x2="187.6" y2="139.6" />
      <line x1="185.2" y1="144.4" x2="185.2" y2="139.6" />
      <line x1="185.2" y1="139.6" x2="187.6" y2="139.6" />
      <line x1="185.2" y1="131.6" x2="185.2" y2="144.4" />
      <line x1="185.2" y1="144.4" x2="185.2" y2="139.6" />
      <line x1="185.2" y1="144.4" x2="185.2" y2="139.6" />
      <line x1="185.2" y1="144.4" x2="185.2" y2="139.6" />
      <line x1="185.2" y1="144.4" x2="185.2" y2="139.6" />
      <line x1="185.2" y1="144.4" x2="185.2" y2="139.6" />
      <line x1="185.2" y1="144.4" x2="185.2" y2="139.6" />
      <line x1="185.2" y1="144.4" x2="185.2" y2="139.6" />
      <line x1="187.6" y1="131.6" x2="185.2" y2="131.6" />
      <line x1="185.2" y1="144.4" x2="187.6" y2="144.4" />
      <line x1="185.2" y1="144.4" x2="187.6" y2="144.4" />
      <line x1="185.2" y1="139.6" x2="187.6" y2="139.6" />
      <line x1="185.2" y1="139.6" x2="187.6" y2="139.6" />
      <line x1="185.2" y1="144.4" x2="187.6" y2="144.4" />
      <line x1="185.2" y1="144.4" x2="187.6" y2="144.4" />
      <line x1="185.2" y1="139.6" x2="187.6" y2="139.6" />
      <line x1="185.2" y1="139.6" x2="187.6" y2="139.6" />
      <line x1="185.2" y1="144.4" x2="187.6" y2="144.4" />
      <line x1="185.2" y1="144.4" x2="187.6" y2="144.4" />
      <line x1="185.2" y1="139.6" x2="187.6" y2="139.6" />
      <line x1="185.2" y1="139.6" x2="187.6" y2="139.6" />
      <line x1="185.2" y1="144.4" x2="187.6" y2="144.4" />
      <line x1="185.2" y1="144.4" x2="187.6" y2="144.4" />
      <line x1="185.2" y1="139.6" x2="187.6" y2="139.6" />
      <line x1="-70.0" y1="-154.0" x2="-70.0" y2="-146.0" />
      <line x1="-70.0" y1="-160.0" x2="-70.0" y2="-146.0" />
      <line x1="-70.0" y1="-160.0" x2="70.0" y2="-160.0" />
      <line x1="-70.0" y1="-146.0" x2="70.0" y2="-146.0" />
      <line x1="70.0" y1="-154.0" x2="70.0" y2="-146.0" />
      <circle cx="-56.0" cy="-153.0" r="4.0" />
      <circle cx="-28.0" cy="-153.0" r="4.0" />
      <circle cx="0.0" cy="-153.0" r="4.0" />
      <circle cx="28.0" cy="-153.0" r="4.0" />
      <circle cx="56.0" cy="-153.0" r="4.0" />
      <line x1="-70.0" y1="-146.0" x2="70.0" y2="-146.0" />
      <line x1="70.0" y1="-160.0" x2="70.0" y2="-146.0" />
      <circle cx="-56.0" cy="-153.0" r="2.5" />
      <circle cx="-28.0" cy="-153.0" r="2.5" />
      <circle cx="0.0" cy="-153.0" r="2.5" />
      <circle cx="28.0" cy="-153.0" r="2.5" />
      <circle cx="56.0" cy="-153.0" r="2.5" />
      <path d="M -52.0,-153.0 A 4.0,4.0 0.0 1,1 -59.872983,-154.0" />
      <path d="M -52.127017,-154.0 A 4.0,4.0 0.0 0,1 -52.0,-153.0" />
      <path d="M -24.0,-153.0 A 4.0,4.0 0.0 1,1 -31.872983,-154.0" />
      <path d="M -24.127017,-154.0 A 4.0,4.0 0.0 0,1 -24.0,-153.0" />
      <path d="M 4.0,-153.0 A 4.0,4.0 0.0 1,1 -3.872983,-154.0" />
      <path d="M 3.872983,-154.0 A 4.0,4.0 0.0 0,1 4.0,-153.0" />
      <path d="M 32.0,-153.0 A 4.0,4.0 0.0 1,1 24.127017,-154.0" />
      <path d="M 31.872983,-154.0 A 4.0,4.0 0.0 0,1 32.0,-153.0" />
      <path d="M 60.0,-153.0 A 4.0,4.0 0.0 1,1 52.127017,-154.0" />
      <path d="M 59.872983,-154.0 A 4.0,4.0 0.0 0,1 60.0,-153.0" />
      <circle cx="-56.0" cy="-153.0" r="2.5" />
      <circle cx="-28.0" cy="-153.0" r="2.5" />
      <circle cx="0.0" cy="-153.0" r="2.5" />
      <circle cx="28.0" cy="-153.0" r="2.5" />
      <circle cx="56.0" cy="-153.0" r="2.5" />
      <line x1="-160.0" y1="-47.0" x2="-160.0" y2="60.0" />
      <line x1="-160.0" y1="-60.0" x2="-160.0" y2="60.0" />
      <line x1="160.0" y1="-47.0" x2="160.0" y2="60.0" />
      <line x1="160.0" y1="-60.0" x2="160.0" y2="60.0" />
      <line x1="-160.0" y1="-60.0" x2="160.0" y2="-60.0" />
      <line x1="-160.0" y1="60.0" x2="160.0" y2="60.0" />
      <line x1="-160.0" y1="60.0" x2="160.0" y2="60.0" />
      <path d="M 184.0,57.0 A 6.0,6.0 0.0 0,1 172.0,57.0" />
      <line x1="184.0" y1="57.0" x2="195.0" y2="57.0" />
      <line x1="161.0" y1="57.0" x2="172.0" y2="57.0" />
      <line x1="195.0" y1="-13.0" x2="195.0" y2="57.0" />
      <line x1="161.0" y1="-13.0" x2="161.0" y2="57.0" />
      <line x1="161.0" y1="-13.0" x2="195.0" y2="-13.0" />
      <circle cx="178.0" cy="3.0" r="1.6" />
      <circle cx="178.0" cy="18.0" r="1.6" />
      <circle cx="178.0" cy="33.0" r="1.6" />
      <circle cx="178.0" cy="48.0" r="1.6" />
      <circle cx="178.0" cy="57.0" r="2.0" />
      <path d="M 184.0,57.0 A 6.0,6.0 0.0 0,1 172.0,57.0" />
      <line x1="184.0" y1="57.0" x2="195.0" y2="57.0" />
      <line x1="161.0" y1="57.0" x2="172.0" y2="57.0" />
      <line x1="195.0" y1="-47.0" x2="195.0" y2="-13.0" />
      <line x1="195.0" y1="-13.0" x2="195.0" y2="57.0" />
      <line x1="195.0" y1="-16.0" x2="195.0" y2="-13.0" />
      <line x1="161.0" y1="-13.0" x2="161.0" y2="57.0" />
      <line x1="161.0" y1="-13.0" x2="195.0" y2="-13.0" />
      <circle cx="178.0" cy="3.0" r="1.6" />
      <circle cx="178.0" cy="18.0" r="1.6" />
      <circle cx="178.0" cy="33.0" r="1.6" />
      <circle cx="178.0" cy="48.0" r="1.6" />
      <circle cx="178.0" cy="57.0" r="2.0" />
      <line x1="161.0" y1="-13.0" x2="195.0" y2="-13.0" />
      <line x1="-195.0" y1="-47.0" x2="195.0" y2="-47.0" />
      <line x1="-195.0" y1="-47.0" x2="-195.0" y2="-13.0" />
      <line x1="-195.0" y1="-13.0" x2="195.0" y2="-13.0" />
      <circle cx="-128.0" cy="-40.0" r="4.0" />
      <circle cx="128.0" cy="-40.0" r="4.0" />
      <circle cx="-128.0" cy="-20.0" r="4.0" />
      <circle cx="128.0" cy="-20.0" r="4.0" />
      <line x1="-161.0" y1="-13.0" x2="161.0" y2="-13.0" />
      <line x1="-195.0" y1="-13.0" x2="-161.0" y2="-13.0" />
      <line x1="-195.0" y1="-16.0" x2="-195.0" y2="-13.0" />
      <line x1="-195.0" y1="-13.0" x2="-161.0" y2="-13.0" />
      <line x1="-195.0" y1="-13.0" x2="-195.0" y2="57.0" />
      <line x1="-195.0" y1="-13.0" x2="-195.0" y2="57.0" />
      <circle cx="-128.0" cy="-40.0" r="4.0" />
      <circle cx="128.0" cy="-40.0" r="4.0" />
      <circle cx="-128.0" cy="-20.0" r="4.0" />
      <circle cx="128.0" cy="-20.0" r="4.0" />
      <line x1="-161.0" y1="-13.0" x2="-161.0" y2="57.0" />
      <line x1="-161.0" y1="-13.0" x2="-161.0" y2="57.0" />
      <path d="M -172.0,57.0 A 6.0,6.0 0.0 0,1 -184.0,57.0" />
      <line x1="-172.0" y1="57.0" x2="-161.0" y2="57.0" />
      <line x1="-195.0" y1="57.0" x2="-184.0" y2="57.0" />
      <circle cx="-178.0" cy="3.0" r="1.6" />
      <circle cx="-178.0" cy="18.0" r="1.6" />
      <circle cx="-178.0" cy="33.0" r="1.6" />
      <circle cx="-178.0" cy="48.0" r="1.6" />
      <circle cx="-178.0" cy="57.0" r="2.0" />
      <line x1="-195.0" y1="-13.0" x2="-161.0" y2="-13.0" />
      <line x1="-195.0" y1="57.0" x2="-184.0" y2="57.0" />
      <path d="M -172.0,57.0 A 6.0,6.0 0.0 0,1 -184.0,57.0" />
      <line x1="-172.0" y1="57.0" x2="-161.0" y2="57.0" />
      <circle cx="-178.0" cy="3.0" r="1.6" />
      <circle cx="-178.0" cy="18.0" r="1.6" />
      <circle cx="-178.0" cy="33.0" r="1.6" />
      <circle cx="-178.0" cy="48.0" r="1.6" />
      <circle cx="-178.0" cy="57.0" r="2.0" />
      <circle cx="-128.0" cy="-40.0" r="2.0" />
      <circle cx="128.0" cy="-40.0" r="2.0" />
      <circle cx="-128.0" cy="-20.0" r="2.0" />
      <circle cx="128.0" cy="-20.0" r="2.0" />
      <circle cx="-128.0" cy="-40.0" r="2.0" />
      <circle cx="128.0" cy="-40.0" r="2.0" />
      <circle cx="-128.0" cy="-20.0" r="2.0" />
      <circle cx="128.0" cy="-20.0" r="2.0" />
      <circle cx="130.0" cy="6.0" r="9.0" />
      <circle cx="130.0" cy="6.0" r="9.0" />
      <line x1="-207.0" y1="-13.0" x2="-207.0" y2="151.0" />
      <line x1="-207.0" y1="151.0" x2="207.0" y2="151.0" />
      <line x1="-207.0" y1="-13.0" x2="207.0" y2="-13.0" />
      <line x1="207.0" y1="-13.0" x2="207.0" y2="151.0" />
      <circle cx="-130.0" cy="6.0" r="9.0" />
      <circle cx="-112.0" cy="6.0" r="3.0" />
      <circle cx="-175.0" cy="29.0" r="4.0" />
      <circle cx="-65.0" cy="29.0" r="4.0" />
      <circle cx="0.0" cy="6.0" r="9.0" />
      <circle cx="18.0" cy="6.0" r="3.0" />
      <circle cx="148.0" cy="6.0" r="3.0" />
      <circle cx="-175.0" cy="109.0" r="4.0" />
      <circle cx="-65.0" cy="109.0" r="4.0" />
      <circle cx="76.0" cy="55.0" r="4.0" />
      <circle cx="76.0" cy="83.0" r="4.0" />
      <circle cx="174.0" cy="55.0" r="4.0" />
      <circle cx="174.0" cy="83.0" r="4.0" />
      <circle cx="130.0" cy="6.0" r="6.0" />
      <circle cx="-130.0" cy="6.0" r="9.0" />
      <circle cx="-112.0" cy="6.0" r="3.0" />
      <circle cx="-175.0" cy="29.0" r="4.0" />
      <circle cx="-65.0" cy="29.0" r="4.0" />
      <circle cx="0.0" cy="6.0" r="9.0" />
      <circle cx="18.0" cy="6.0" r="3.0" />
      <circle cx="148.0" cy="6.0" r="3.0" />
      <circle cx="-175.0" cy="109.0" r="4.0" />
      <circle cx="-65.0" cy="109.0" r="4.0" />
      <circle cx="76.0" cy="55.0" r="4.0" />
      <circle cx="76.0" cy="83.0" r="4.0" />
      <circle cx="174.0" cy="55.0" r="4.0" />
      <circle cx="174.0" cy="83.0" r="4.0" />
      <circle cx="130.0" cy="6.0" r="6.0" />
      <circle cx="-130.0" cy="6.0" r="6.0" />
      <circle cx="-175.0" cy="29.0" r="2.0" />
      <circle cx="-65.0" cy="29.0" r="2.0" />
      <circle cx="0.0" cy="6.0" r="6.0" />
      <circle cx="-175.0" cy="109.0" r="2.0" />
      <circle cx="-65.0" cy="109.0" r="2.0" />
      <circle cx="76.0" cy="55.0" r="2.0" />
      <circle cx="76.0" cy="83.0" r="2.0" />
      <circle cx="174.0" cy="55.0" r="2.0" />
      <circle cx="174.0" cy="83.0" r="2.0" />
      <line x1="-210.0" y1="-16.0" x2="-210.0" y2="154.0" />
      <line x1="-210.0" y1="154.0" x2="210.0" y2="154.0" />
      <line x1="-210.0" y1="-16.0" x2="210.0" y2="-16.0" />
      <line x1="210.0" y1="-16.0" x2="210.0" y2="154.0" />
      <circle cx="-130.0" cy="6.0" r="6.0" />
      <circle cx="0.0" cy="6.0" r="6.0" />
      <circle cx="-175.0" cy="29.0" r="2.0" />
      <circle cx="-65.0" cy="29.0" r="2.0" />
      <circle cx="-175.0" cy="109.0" r="2.0" />
      <circle cx="-65.0" cy="109.0" r="2.0" />
      <circle cx="76.0" cy="55.0" r="2.0" />
      <circle cx="76.0" cy="83.0" r="2.0" />
      <circle cx="174.0" cy="55.0" r="2.0" />
      <circle cx="174.0" cy="83.0" r="2.0" />
      <line x1="-210.0" y1="-16.0" x2="-210.0" y2="154.0" />
      <line x1="-210.0" y1="-16.0" x2="210.0" y2="-16.0" />
      <line x1="-210.0" y1="154.0" x2="210.0" y2="154.0" />
      <line x1="210.0" y1="-16.0" x2="210.0" y2="154.0" />
      <line x1="-206.7" y1="-12.7" x2="-206.7" y2="150.7" />
      <line x1="-206.7" y1="-12.7" x2="206.7" y2="-12.7" />
      <line x1="206.7" y1="-12.7" x2="206.7" y2="150.7" />
      <line x1="-206.7" y1="150.7" x2="206.7" y2="150.7" />
      <line x1="-206.7" y1="-12.7" x2="-206.7" y2="150.7" />
      <line x1="-206.7" y1="-12.7" x2="206.7" y2="-12.7" />
      <line x1="206.7" y1="-12.7" x2="206.7" y2="150.7" />
      <line x1="-206.7" y1="150.7" x2="206.7" y2="150.7" />
      <line x1="-202.7" y1="-8.7" x2="-202.7" y2="146.7" />
      <line x1="-202.7" y1="-8.7" x2="202.7" y2="-8.7" />
      <line x1="202.7" y1="-8.7" x2="202.7" y2="146.7" />
      <line x1="-202.7" y1="146.7" x2="202.7" y2="146.7" />
      <line x1="-202.7" y1="-8.7" x2="-202.7" y2="146.7" />
      <line x1="-202.7" y1="-8.7" x2="202.7" y2="-8.7" />
      <line x1="202.7" y1="-8.7" x2="202.7" y2="146.7" />
      <line x1="-202.7" y1="146.7" x2="202.7" y2="146.7" />
      <line x1="-50.0" y1="67.0" x2="-70.0" y2="67.0" />
      <line x1="-50.0" y1="67.0" x2="-50.0" y2="71.0" />
      <line x1="-70.0" y1="67.0" x2="-70.0" y2="71.0" />
      <line x1="-50.0" y1="71.0" x2="-70.0" y2="71.0" />
      <line x1="10.0" y1="67.0" x2="-10.0" y2="67.0" />
      <line x1="10.0" y1="67.0" x2="10.0" y2="71.0" />
      <line x1="-10.0" y1="67.0" x2="-10.0" y2="71.0" />
      <line x1="10.0" y1="71.0" x2="-10.0" y2="71.0" />
      <line x1="70.0" y1="67.0" x2="50.0" y2="67.0" />
      <line x1="70.0" y1="67.0" x2="70.0" y2="71.0" />
      <line x1="70.0" y1="71.0" x2="50.0" y2="71.0" />
      <line x1="50.0" y1="67.0" x2="50.0" y2="71.0" />
      <line x1="-70.0" y1="67.0" x2="-50.0" y2="67.0" />
      <line x1="-50.0" y1="67.0" x2="-50.0" y2="71.0" />
      <line x1="-70.0" y1="67.0" x2="-70.0" y2="71.0" />
      <line x1="-70.0" y1="71.0" x2="-50.0" y2="71.0" />
      <line x1="-10.0" y1="67.0" x2="10.0" y2="67.0" />
      <line x1="10.0" y1="67.0" x2="10.0" y2="71.0" />
      <line x1="-10.0" y1="67.0" x2="-10.0" y2="71.0" />
      <line x1="-10.0" y1="71.0" x2="10.0" y2="71.0" />
      <line x1="50.0" y1="67.0" x2="70.0" y2="67.0" />
      <line x1="70.0" y1="67.0" x2="70.0" y2="71.0" />
      <line x1="50.0" y1="71.0" x2="70.0" y2="71.0" />
      <line x1="50.0" y1="67.0" x2="50.0" y2="71.0" />
      <line x1="60.4" y1="151.0" x2="60.4" y2="148.0" />
      <line x1="96.4" y1="151.0" x2="96.4" y2="148.0" />
      <line x1="35.75" y1="150.0" x2="35.75" y2="146.0" />
      <line x1="118.25" y1="150.0" x2="118.25" y2="146.0" />
      <line x1="35.75" y1="150.0" x2="35.75" y2="146.0" />
      <line x1="36.0" y1="150.0" x2="36.0" y2="146.0" />
      <line x1="118.25" y1="150.0" x2="118.25" y2="146.0" />
      <line x1="33.0" y1="146.0" x2="33.0" y2="145.8" />
      <line x1="72.0" y1="150.0" x2="72.0" y2="146.0" />
    </g>
    <g fill="none" stroke="rgb(0,0,0)" stroke-width="0.8333333333333333" id="visible">
      <line x1="234.0" y1="-154.0" x2="-234.0" y2="-154.0" />
      <line x1="234.0" y1="-154.0" x2="234.0" y2="154.0" />
      <line x1="234.0" y1="154.0" x2="-234.0" y2="154.0" />
      <line x1="-234.0" y1="-154.0" x2="-234.0" y2="154.0" />
      <line x1="214.0" y1="134.0" x2="-214.0" y2="134.0" />
      <line x1="214.0" y1="-134.0" x2="214.0" y2="134.0" />
      <line x1="214.0" y1="-134.0" x2="-214.0" y2="-134.0" />
      <line x1="-214.0" y1="-134.0" x2="-214.0" y2="134.0" />
      <line x1="-205.0" y1="-134.0" x2="-205.0" y2="-105.0" />
      <line x1="-205.0" y1="-105.0" x2="-200.0" y2="-105.0" />
      <line x1="-175.0" y1="-134.0" x2="-175.0" y2="-131.0" />
      <line x1="-120.0" y1="-134.0" x2="-120.0" y2="-131.0" />
      <line x1="120.0" y1="-134.0" x2="120.0" y2="-131.0" />
      <line x1="117.0" y1="-133.0" x2="-117.0" y2="-133.0" />
      <line x1="-117.0" y1="-133.0" x2="-117.0" y2="-131.0" />
      <line x1="117.0" y1="-133.0" x2="117.0" y2="-131.0" />
      <line x1="-200.0" y1="-131.0" x2="-200.0" y2="-16.0" />
      <line x1="-200.0" y1="-131.0" x2="200.0" y2="-131.0" />
      <line x1="200.0" y1="-131.0" x2="200.0" y2="-16.0" />
      <circle cx="-154.0" cy="-70.0" r="4.0" />
      <circle cx="154.0" cy="-70.0" r="4.0" />
      <line x1="197.0" y1="-128.0" x2="27.87472" y2="-128.0" />
      <line x1="-27.87472" y1="-128.0" x2="-197.0" y2="-128.0" />
      <line x1="197.0" y1="-128.0" x2="197.0" y2="-16.0" />
      <line x1="-197.0" y1="-128.0" x2="-197.0" y2="-16.0" />
      <path d="M -16.217275,-131.0 A 132.0,132.0 0.0 0,1 16.217275,-131.0" />
      <path d="M -117.575508,-60.0 A 132.0,132.0 0.0 0,1 -32.249031,-128.0" />
      <path d="M 117.575508,-60.0 A 132.0,132.0 75.85888976606834 0,0 32.249031,-128.0" />
      <path d="M -116.451707,-60.0 A 131.0,131.0 0.0 0,1 116.451707,-60.0" />
      <path d="M -105.076163,-60.0 A 121.0,121.0 0.0 0,1 105.076163,-60.0" />
      <path d="M -104.172027,-60.0 A 120.21568627450979,120.21568627450979 0.0 0,1 104.172027,-60.0" />
      <path d="M -81.246538,-60.0 A 101.0,101.0 0.0 0,1 81.246538,-60.0" />
      <line x1="210.0" y1="123.6" x2="214.0" y2="123.6" />
      <line x1="214.0" y1="123.6" x2="214.0" y2="134.0" />
      <line x1="211.6" y1="128.4" x2="210.0" y2="128.4" />
      <line x1="211.6" y1="128.4" x2="211.6" y2="134.0" />
      <line x1="-70.0" y1="-160.0" x2="-70.0" y2="-154.0" />
      <line x1="-70.0" y1="-160.0" x2="70.0" y2="-160.0" />
      <line x1="70.0" y1="-160.0" x2="70.0" y2="-154.0" />
      <path d="M -59.872983,-154.0 A 4.0,4.0 0.0 0,1 -52.127017,-154.0" />
      <path d="M -31.872983,-154.0 A 4.0,4.0 0.0 0,1 -24.127017,-154.0" />
      <path d="M -3.872983,-154.0 A 4.0,4.0 0.0 0,1 3.872983,-154.0" />
      <path d="M 24.127017,-154.0 A 4.0,4.0 0.0 0,1 31.872983,-154.0" />
      <path d="M 52.127017,-154.0 A 4.0,4.0 0.0 0,1 59.872983,-154.0" />
      <line x1="-160.0" y1="-60.0" x2="-160.0" y2="-47.0" />
      <line x1="160.0" y1="-60.0" x2="160.0" y2="-47.0" />
      <line x1="-160.0" y1="-60.0" x2="160.0" y2="-60.0" />
      <line x1="195.0" y1="-47.0" x2="195.0" y2="-16.0" />
      <line x1="-195.0" y1="-47.0" x2="195.0" y2="-47.0" />
      <line x1="-195.0" y1="-47.0" x2="-195.0" y2="-16.0" />
      <line x1="-207.0" y1="-13.0" x2="-207.0" y2="151.0" />
      <line x1="207.0" y1="151.0" x2="-207.0" y2="151.0" />
      <line x1="207.0" y1="-13.0" x2="-207.0" y2="-13.0" />
      <line x1="207.0" y1="-13.0" x2="207.0" y2="151.0" />
      <line x1="-210.0" y1="-16.0" x2="-210.0" y2="154.0" />
      <line x1="-210.0" y1="154.0" x2="210.0" y2="154.0" />
      <line x1="-210.0" y1="-16.0" x2="210.0" y2="-16.0" />
      <line x1="210.0" y1="-16.0" x2="210.0" y2="154.0" />
      <line x1="-210.0" y1="-16.0" x2="-210.0" y2="154.0" />
      <line x1="-210.0" y1="-16.0" x2="210.0" y2="-16.0" />
      <line x1="-210.0" y1="154.0" x2="210.0" y2="154.0" />
      <line x1="210.0" y1="-16.0" x2="210.0" y2="154.0" />
    </g>
  </g>
</svg>